{"title":"White Zombie - Astro-Creep 2000 - CD remaster by MC Lurken 24-bi","uid":7395865,"size":1219235181,"categoryP":"audio","categoryS":"flac","magnet":"?xt=urn:btih:3982774eea8613c2e579218205e3d5fbf77284c9&amp;dn=White+Zombie+-+Astro-Creep+2000+-+CD+remaster+by+MC+Lurken+24-bi&amp;tr=udp%3A%2F%2Ftracker.openbittorrent.com%3A80&amp;tr=udp%3A%2F%2Fopen.demonii.com%3A1337&amp;tr=udp%3A%2F%2Ftracker.coppersurfer.tk%3A6969&amp;tr=udp%3A%2F%2Fexodus.desync.com%3A6969","seeders":1,"leechers":0,"uploader":"beavis39","files":-1,"time":1340914339,"description":"White Zombie - Astro-Creep 2000 - CD remaster by MC Lurken (a.k.a. Beavis39)\n\n\n\n!!!!!!!!!!!!!THIS IS NOT AN OFFICIAL REMASTER, THIS IS A FAN RELEASE!!!!!!!!!!!!!!\n!!!!!!!!!!!!!THIS IS NOT AN OFFICIAL REMASTER, THIS IS A FAN RELEASE!!!!!!!!!!!!!!\n!!!!!!!!!!!!!THIS IS NOT AN OFFICIAL REMASTER, THIS IS A FAN RELEASE!!!!!!!!!!!!!!\n\n\n\n1 - Electric Head, Pt. 1 (The Agony)\n2 - Super-Charger Heaven\n3 - Real Solution #9\n4 - Creature of the Wheel\n5 - Electric Head, Pt. 2 (The Ecstasy)\n6 - Grease Paint and Monkey Brains\n7 - I, Zombie\n8 - More Human Than Human\n9 - El Phantasmo and the Chicken-Run Blast-O-Rama\n10 - Blur the Technicolor [Poker from Stud to Strip Mix]\n11 - Blood, Milk and Sky*\n*w/hidden track &quot;Where The Sidewalk Ends, The Bug Parade Begins&quot; (silence removed)\n\n\n\nfoobar2000 1.1.13 / Dynamic Range Meter 1.1.1\nlog date: 2012-06-28 12:33:09\n\n--------------------------------------------------------------------------------\nAnalyzed: ? / ?\n--------------------------------------------------------------------------------\n\nDR         Peak         RMS     Duration Track\n--------------------------------------------------------------------------------\nDR7       -0.07 dB    -8.86 dB      4:54 ?-01 - Electric Head, Pt. 1 (The Agony)\nDR7       -0.07 dB    -7.97 dB      3:37 ?-02 - Super-Charger Heaven\nDR7       -0.07 dB    -9.44 dB      4:44 ?-03 - Real Solution #9\nDR7       -0.07 dB    -9.07 dB      3:25 ?-04 - Creature of the Wheel\nDR8       -0.07 dB    -9.44 dB      3:53 ?-05 - Electric Head, Pt. 2 (The Ecstasy)\nDR8       -0.07 dB   -10.95 dB      3:49 ?-06 - Grease Paint and Monkey Brains\nDR8       -0.07 dB    -9.31 dB      3:31 ?-07 - I, Zombie\nDR7       -0.07 dB    -9.48 dB      4:29 ?-08 - More Human Than Human\nDR8       -0.07 dB    -9.64 dB      4:13 ?-09 - El Phantasmo and the Chicken-Run Blast-O-Rama\nDR7       -0.07 dB    -9.02 dB      4:09 ?-10 - Blur the Technicolor [Poker from Stud to Strip Mix]\nDR8       -0.07 dB   -10.31 dB      8:24 ?-11 - Blood, Milk and Sky\n--------------------------------------------------------------------------------\n\nNumber of tracks:  11\nOfficial DR value: DR8\n\nSamplerate:        96000 Hz\nChannels:          2\nBits per sample:   24\nBitrate:           4608 kbps\nCodec:             PCM\n\n\n\nenjoy :)","torrent":{"xt":"urn:btih:3982774eea8613c2e579218205e3d5fbf77284c9","amp;dn":"White+Zombie+-+Astro-Creep+2000+-+CD+remaster+by+MC+Lurken+24-bi","amp;tr":["udp%3A%2F%2Ftracker.openbittorrent.com%3A80","udp%3A%2F%2Fopen.demonii.com%3A1337","udp%3A%2F%2Ftracker.coppersurfer.tk%3A6969","udp%3A%2F%2Fexodus.desync.com%3A6969"],"infoHash":"3982774eea8613c2e579218205e3d5fbf77284c9","infoHashBuffer":{"type":"Buffer","data":[57,130,119,78,234,134,19,194,229,121,33,130,5,227,213,251,247,114,132,201]},"announce":[],"urlList":[]}}